<?xml version="1.0" encoding="utf-8"?>
<!-- Generator: Adobe Illustrator 18.1.1, SVG Export Plug-In . SVG Version: 6.00 Build 0)  -->
<svg version="1.1" id="Layer_1" xmlns="http://www.w3.org/2000/svg" xmlns:xlink="http://www.w3.org/1999/xlink" x="0px" y="0px"
	 width="170px" height="38.3px" viewBox="-85 492.9 170 38.3" enable-background="new -85 492.9 170 38.3" xml:space="preserve">
<g>
	<path d="M-85,516.7"/>
	<path d="M-61.9,514c-0.7,0.5-4.1,3.1-9.5,3.1c-6.8,0-11.9-4.9-11.9-11.9c0-6.3,4.1-12.2,12.2-12.2c4.1,0,6.8,1.4,8.5,2.9l-2.4,3.1
		c-1-0.9-3.1-2.2-6.1-2.2c-4.9,0-8,3.7-8,8.3c0,5.8,3.9,8.5,7.8,8.5c3.2,0,5.1-1.4,5.4-1.5v-4.3h-5.8v-3.4h9.7V514z"/>
	<path d="M-59.2,516.7"/>
</g>
<g>
	<path d="M-61,516.7"/>
	<path d="M-41.3,508.2c0,4.9-3.9,8.8-9.2,8.8s-9-3.9-9-8.7l0,0c0-4.9,3.9-8.8,9.2-8.8C-45,499.3-41.3,503.2-41.3,508.2L-41.3,508.2z
		 M-45.2,508.2L-45.2,508.2c0-3.1-2.2-5.4-5.3-5.4c-3.1,0-5.1,2.4-5.1,5.4l0,0c0,2.9,2.2,5.4,5.3,5.4
		C-47.1,513.6-45.2,511.2-45.2,508.2z"/>
	<path d="M-39.8,516.7"/>
</g>
<g>
	<path d="M-41.5,516.7"/>
	<rect x="-38.8" y="493" width="3.9" height="23.6"/>
	<path d="M-32.1,516.7"/>
</g>
<g>
	<path d="M-34,516.7"/>
	<path d="M-14.6,516.7h-3.7v-2.2c-1,1.5-3.2,2.5-5.6,2.5c-4.4,0-8.5-3.2-8.5-8.8l0,0c0-4.1,2.4-8.8,8.7-8.8c2.4,0,4.4,1,5.3,2.4
		v-8.5h3.9L-14.6,516.7L-14.6,516.7z M-18.4,508.2c0-3.7-2.7-5.4-5.1-5.4s-4.9,1.7-4.9,5.4c0,2.9,1.9,5.4,5.1,5.4
		C-20.4,513.6-18.4,511.4-18.4,508.2z"/>
	<path d="M-12.2,516.7"/>
</g>
<g>
	<path d="M-13.6,516.7"/>
	<path d="M1.2,511.7c0,3.4-2.7,5.3-6.3,5.3c-4.1,0-7-1.9-7.1-2.2l1.7-2.7c1.7,1.2,3.7,1.9,5.4,1.9s2.4-0.7,2.4-1.9
		c0-1.2-1.5-1.7-3.6-2.4c-2.7-1-5.3-1.9-5.3-4.9l0,0c0-3.2,2.7-5.3,6.1-5.3c2.2,0,4.4,0.5,6.3,1.7l-1.5,2.9c-1.7-1-3.4-1.5-4.6-1.5
		c-1.5,0-2.4,0.7-2.4,1.7c0,1.4,2.4,2,3.6,2.4C-1.7,507.5,1.2,508.5,1.2,511.7z"/>
	<path d="M2.7,516.7"/>
</g>
<g>
	<path d="M31.8,516.7"/>
</g>
<g>
	<rect x="32.8" y="494.1" width="3.9" height="3.7"/>
	<rect x="32.8" y="499.7" width="3.9" height="17"/>
	<path d="M39.4,516.7"/>
</g>
<g>
	<path d="M38.3,516.7"/>
	<path d="M51.2,515.8c-0.2,0.2-1.7,1.2-4.3,1.2c-3.4,0-5.3-1.7-5.3-5.3v-9h-2.6v-3.1h2.6v-5.6h3.9v5.6h4.9v3.1h-4.9v8.3
		c0,1,0.2,1.5,0.5,2c0.3,0.3,1,0.5,1.7,0.5c1,0,1.9-0.3,2.4-0.5L51.2,515.8z"/>
	<path d="M51.5,516.7"/>
</g>
<g>
	<path d="M50.5,516.7"/>
	<path d="M68,516.7h-3.9v-9c0-2.9-0.5-4.9-3.4-4.9c-3.4,0-3.6,3.2-3.6,5.3v8.7h-3.9V493h3.9v8.3c0.7-1,2.2-2,4.6-2
		c2.4,0,3.7,0.7,4.8,1.7c1.7,1.7,1.7,4.4,1.7,5.4v10.2H68z"/>
	<path d="M70.6,516.7"/>
</g>
<g>
	<path d="M68.8,516.7"/>
	<path d="M83.5,511.7c0,3.4-2.7,5.3-6.3,5.3c-4.1,0-7-1.9-7.1-2.2l1.7-2.7c1.7,1.2,3.7,1.9,5.4,1.9c1.7,0,2.4-0.7,2.4-1.9
		c0-1.2-1.5-1.7-3.6-2.4c-2.7-1-5.3-1.9-5.3-4.9l0,0c0-3.2,2.7-5.3,6.1-5.3c2.2,0,4.4,0.5,6.3,1.7l-1.5,2.9c-1.7-1-3.4-1.5-4.6-1.5
		c-1.5,0-2.4,0.7-2.4,1.7c0,1.4,2.4,2,3.6,2.4C80.8,507.5,83.5,508.5,83.5,511.7z"/>
	<path d="M85,516.7"/>
</g>
<g>
	<path d="M2.7,516.7"/>
</g>
<path d="M29.4,516.7h-3.9v-9c0-2.9-0.5-4.9-3.4-4.9c-3.4,0-3.6,3.2-3.6,5.3v8.7h-3.9v-9c0-2.9-0.5-4.9-3.4-4.9
	c-3.1,0-3.6,2.7-3.6,4.9v9H3.7v-17h3.7v2c0.9-1.4,2.4-2.4,4.9-2.4s4.1,1,5.1,2.9c0.9-1.2,2.5-2.9,5.6-2.9c2.4,0,3.7,0.7,4.8,1.7
	c1.7,1.7,1.7,4.4,1.7,5.4v10.2H29.4z"/>
<path d="M30.3,516.7"/>
<g>
	<path d="M-39.6,531"/>
	<path d="M-33.7,528.2c0,0.9,0,2.7-2.5,2.7s-2.5-2-2.5-2.7v-3.4h1.4v3.4c0,0.9,0.3,1.4,1.2,1.4c1.2,0,1.2-1,1.2-1.4v-3.4h1.4V528.2z
		"/>
	<path d="M-32.8,531"/>
</g>
<g>
	<path d="M-32.6,531"/>
	<polygon points="-26.5,531 -27.5,531 -30.4,527.4 -30.4,531 -31.6,531 -31.6,525 -30.4,525 -27.7,528.6 -27.7,525 -26.5,525 	"/>
	<path d="M-25.5,531"/>
</g>
<g>
	<path d="M-25.5,531"/>
	<rect x="-24.5" y="525" width="1.4" height="5.9"/>
	<path d="M-22.1,531"/>
</g>
<g>
	<path d="M-21.9,531"/>
	<polygon points="-15.6,525 -18,531 -19.4,531 -21.6,525 -20.1,525 -18.7,529.1 -17.2,525 	"/>
	<path d="M-15.3,531"/>
</g>
<g>
	<path d="M-15.3,531"/>
	<polygon points="-10,531 -14.3,531 -14.3,525 -10,525 -10,526.2 -12.9,526.2 -12.9,527.4 -10.4,527.4 -10.4,528.6 -12.9,528.6 
		-12.9,529.8 -10,529.8 	"/>
	<path d="M-9.4,531"/>
</g>
<g>
	<path d="M-9,531"/>
	<path d="M-2.9,531h-1.5l-1.4-2h-0.8v2H-8v-6h2.2c0.5,0,1.4,0,1.9,0.5c0.3,0.3,0.5,0.7,0.5,1.4c0,1.2-0.9,1.5-1.2,1.7L-2.9,531z
		 M-4.6,527c0-0.8-0.7-0.8-1.2-0.8h-0.7v1.7h0.7C-5.4,527.9-4.6,527.9-4.6,527z"/>
	<path d="M-2.4,531"/>
</g>
<g>
	<path d="M-2.4,531"/>
	<path d="M2.7,529.3c0,1.2-0.9,1.9-2.2,1.9c-1.2,0-2-0.5-2.4-0.7l0.5-1c0.2,0.2,1,0.5,1.9,0.5c0.7,0,0.9-0.2,0.9-0.7
		s-0.7-0.7-1.2-0.7c-0.9-0.2-1.9-0.7-1.9-1.9c0-1,0.9-1.7,2.2-1.7c1,0,1.9,0.3,2,0.5l-0.5,1c-0.2,0-0.8-0.5-1.5-0.5
		c-0.5,0-0.9,0.2-0.9,0.5c0,0.3,0.5,0.5,1.2,0.9C1.9,527.7,2.7,528.1,2.7,529.3z"/>
	<path d="M3.2,531"/>
</g>
<g>
	<path d="M3.6,531"/>
	<rect x="4.6" y="525" width="1.4" height="5.9"/>
	<path d="M6.8,531"/>
</g>
<g>
	<path d="M7,531"/>
	<polygon points="12.4,526.2 10.7,526.2 10.7,531 9.2,531 9.2,526.2 7.3,526.2 7.3,525 12.4,525 	"/>
	<path d="M12.9,531"/>
</g>
<g>
	<path d="M12.9,531"/>
	<polygon points="19.4,525 17.2,528.6 17.2,531 15.6,531 15.6,528.6 13.4,525 15.1,525 16.5,527.2 17.9,525 	"/>
	<path d="M19.9,531"/>
</g>
<g>
	<path d="M19.9,531"/>
	<path d="M30.4,528.1c0,1.7-1.4,3.1-3.2,3.1c-1.9,0-3.1-1.4-3.1-3.1l0,0c0-1.7,1.4-3.1,3.2-3.1C29.1,525,30.4,526.4,30.4,528.1
		L30.4,528.1z M29.1,528.1L29.1,528.1c0-1-0.7-1.9-1.7-1.9c-1,0-1.7,0.7-1.7,1.9l0,0c0,1,0.7,1.9,1.7,1.9
		C28.4,529.8,29.1,529.1,29.1,528.1z"/>
	<path d="M31.1,531"/>
</g>
<g>
	<path d="M31.1,531"/>
	<polygon points="36.2,526.2 33.5,526.2 33.5,527.6 35.9,527.6 35.9,528.6 33.5,528.6 33.5,531 32.1,531 32.1,525 36.2,525 	"/>
	<path d="M36.9,531"/>
</g>
<g>
	<path d="M36.9,531"/>
	<polygon points="45.7,531 41.5,531 41.5,525 42.8,525 42.8,529.8 45.7,529.8 	"/>
	<path d="M46.1,531"/>
</g>
<g>
	<path d="M46.1,531"/>
	<path d="M53,528.1c0,1.7-1.4,3.1-3.2,3.1c-1.9,0-3.1-1.4-3.1-3.1l0,0c0-1.7,1.4-3.1,3.2-3.1C51.7,525,53,526.4,53,528.1L53,528.1z
		 M51.5,528.1L51.5,528.1c0-1-0.7-1.9-1.7-1.9s-1.7,0.7-1.7,1.9l0,0c0,1,0.7,1.9,1.7,1.9C50.8,529.8,51.5,529.1,51.5,528.1z"/>
	<path d="M53.7,531"/>
</g>
<g>
	<path d="M53.7,531"/>
	<polygon points="59.8,531 58.7,531 55.9,527.4 55.9,531 54.6,531 54.6,525 55.8,525 58.5,528.6 58.5,525 59.8,525 	"/>
	<path d="M60.7,531"/>
</g>
<g>
	<path d="M60.7,531"/>
</g>
<g>
	<path d="M60.9,531"/>
	<path d="M67.5,528.1c0,0.8-0.3,1.5-0.9,2c-0.7,0.7-1.7,0.9-2.7,0.9h-2v-6h2.4c0.9,0,1.7,0.2,2.4,0.8
		C67.2,526.4,67.5,527.2,67.5,528.1z M66,528.1c0-0.5-0.2-1-0.5-1.4c-0.5-0.5-1-0.5-1.4-0.5h-0.9v3.7h0.7c0.5,0,1,0,1.5-0.5
		C65.8,529.1,66,528.6,66,528.1z"/>
	<path d="M68,531"/>
</g>
<g>
	<path d="M68,531"/>
	<path d="M75,528.1c0,1.7-1.4,3.1-3.2,3.1c-1.9,0-3.1-1.4-3.1-3.1l0,0c0-1.7,1.4-3.1,3.2-3.1C73.8,525,75,526.4,75,528.1L75,528.1z
		 M73.6,528.1L73.6,528.1c0-1-0.7-1.9-1.7-1.9s-1.7,0.7-1.7,1.9l0,0c0,1,0.7,1.9,1.7,1.9C72.9,529.8,73.6,529.1,73.6,528.1z"/>
	<path d="M75.7,531"/>
</g>
<g>
	<path d="M75.7,531"/>
	<polygon points="81.8,531 80.8,531 78,527.4 78,531 76.7,531 76.7,525 77.9,525 80.6,528.6 80.6,525 81.8,525 	"/>
	<path d="M82.8,531"/>
</g>
</svg>
